<mxfile host="app.diagrams.net" modified="2022-04-18T08:13:11.855Z" agent="5.0 (Macintosh; Intel Mac OS X 10_15_7) AppleWebKit/537.36 (KHTML, like Gecko) Chrome/100.0.4896.88 Safari/537.36" etag="zq2cybqRmXx5RFldH39i" version="17.4.5" type="github">
  <diagram id="nAI1KLYSaczWMPc24v9q" name="Page-1">
    <mxGraphModel dx="3169" dy="701" grid="1" gridSize="10" guides="1" tooltips="1" connect="1" arrows="1" fold="1" page="1" pageScale="1" pageWidth="827" pageHeight="1169" math="0" shadow="0">
      <root>
        <mxCell id="0" />
        <mxCell id="1" parent="0" />
        <mxCell id="86NrVQ4LitImo1cRGKoc-45" value="" style="whiteSpace=wrap;html=1;aspect=fixed;fillColor=#FFFFFF;" vertex="1" parent="1">
          <mxGeometry x="-1300" y="340" width="1280" height="1280" as="geometry" />
        </mxCell>
        <mxCell id="86NrVQ4LitImo1cRGKoc-29" value="Pool" style="swimlane;childLayout=stackLayout;resizeParent=1;resizeParentMax=0;startSize=20;horizontal=0;horizontalStack=1;fillColor=#D4E1F5;" vertex="1" parent="1">
          <mxGeometry x="190" y="450" width="730" height="650" as="geometry" />
        </mxCell>
        <mxCell id="86NrVQ4LitImo1cRGKoc-30" value="主线程" style="swimlane;startSize=20;fillColor=#D4E1F5;" vertex="1" parent="86NrVQ4LitImo1cRGKoc-29">
          <mxGeometry x="20" width="250" height="650" as="geometry" />
        </mxCell>
        <mxCell id="86NrVQ4LitImo1cRGKoc-35" style="edgeStyle=orthogonalEdgeStyle;rounded=0;orthogonalLoop=1;jettySize=auto;html=1;" edge="1" parent="86NrVQ4LitImo1cRGKoc-30" source="86NrVQ4LitImo1cRGKoc-12" target="86NrVQ4LitImo1cRGKoc-1">
          <mxGeometry relative="1" as="geometry" />
        </mxCell>
        <mxCell id="86NrVQ4LitImo1cRGKoc-12" value="submit" style="rounded=0;whiteSpace=wrap;html=1;fillColor=#F2F5D5;" vertex="1" parent="86NrVQ4LitImo1cRGKoc-30">
          <mxGeometry x="44" y="135" width="160" height="40" as="geometry" />
        </mxCell>
        <mxCell id="86NrVQ4LitImo1cRGKoc-1" value="execute" style="rounded=0;whiteSpace=wrap;html=1;fillColor=#F2F5D5;" vertex="1" parent="86NrVQ4LitImo1cRGKoc-30">
          <mxGeometry x="44" y="230" width="160" height="40" as="geometry" />
        </mxCell>
        <mxCell id="86NrVQ4LitImo1cRGKoc-34" value="submit" style="edgeStyle=orthogonalEdgeStyle;rounded=0;orthogonalLoop=1;jettySize=auto;html=1;entryX=0.5;entryY=0;entryDx=0;entryDy=0;" edge="1" parent="86NrVQ4LitImo1cRGKoc-30" source="86NrVQ4LitImo1cRGKoc-16" target="86NrVQ4LitImo1cRGKoc-12">
          <mxGeometry relative="1" as="geometry" />
        </mxCell>
        <mxCell id="86NrVQ4LitImo1cRGKoc-36" style="edgeStyle=orthogonalEdgeStyle;rounded=0;orthogonalLoop=1;jettySize=auto;html=1;entryX=0;entryY=0.5;entryDx=0;entryDy=0;" edge="1" parent="86NrVQ4LitImo1cRGKoc-30" source="86NrVQ4LitImo1cRGKoc-16" target="86NrVQ4LitImo1cRGKoc-1">
          <mxGeometry relative="1" as="geometry">
            <Array as="points">
              <mxPoint x="24" y="70" />
              <mxPoint x="24" y="250" />
            </Array>
          </mxGeometry>
        </mxCell>
        <mxCell id="86NrVQ4LitImo1cRGKoc-38" value="execute" style="edgeLabel;html=1;align=center;verticalAlign=middle;resizable=0;points=[];" vertex="1" connectable="0" parent="86NrVQ4LitImo1cRGKoc-36">
          <mxGeometry x="-0.2571" y="1" relative="1" as="geometry">
            <mxPoint as="offset" />
          </mxGeometry>
        </mxCell>
        <mxCell id="86NrVQ4LitImo1cRGKoc-16" value="执行线程池的接口" style="rounded=0;whiteSpace=wrap;html=1;fillColor=#FFE599;" vertex="1" parent="86NrVQ4LitImo1cRGKoc-30">
          <mxGeometry x="54" y="50" width="140" height="40" as="geometry" />
        </mxCell>
        <mxCell id="86NrVQ4LitImo1cRGKoc-43" value="将线程包装为ZAExecutorJob" style="shape=note;size=20;whiteSpace=wrap;html=1;fillColor=#F5F5F5;" vertex="1" parent="86NrVQ4LitImo1cRGKoc-30">
          <mxGeometry x="19.5" y="280" width="211" height="40" as="geometry" />
        </mxCell>
        <mxCell id="86NrVQ4LitImo1cRGKoc-31" value="worker线程" style="swimlane;startSize=20;fillColor=#D4E1F5;" vertex="1" parent="86NrVQ4LitImo1cRGKoc-29">
          <mxGeometry x="270" width="460" height="650" as="geometry" />
        </mxCell>
        <mxCell id="86NrVQ4LitImo1cRGKoc-3" value="beforeExecute" style="rounded=0;whiteSpace=wrap;html=1;fillColor=#F8CECC;" vertex="1" parent="86NrVQ4LitImo1cRGKoc-31">
          <mxGeometry x="45" y="290" width="160" height="40" as="geometry" />
        </mxCell>
        <mxCell id="86NrVQ4LitImo1cRGKoc-4" value="afterExecute" style="rounded=0;whiteSpace=wrap;html=1;fillColor=#F8CECC;" vertex="1" parent="86NrVQ4LitImo1cRGKoc-31">
          <mxGeometry x="45" y="450" width="160" height="40" as="geometry" />
        </mxCell>
        <mxCell id="86NrVQ4LitImo1cRGKoc-11" style="edgeStyle=orthogonalEdgeStyle;rounded=0;orthogonalLoop=1;jettySize=auto;html=1;" edge="1" parent="86NrVQ4LitImo1cRGKoc-31" source="86NrVQ4LitImo1cRGKoc-9" target="86NrVQ4LitImo1cRGKoc-4">
          <mxGeometry relative="1" as="geometry" />
        </mxCell>
        <mxCell id="86NrVQ4LitImo1cRGKoc-9" value="run" style="rounded=0;whiteSpace=wrap;html=1;fillColor=#F8CECC;" vertex="1" parent="86NrVQ4LitImo1cRGKoc-31">
          <mxGeometry x="45" y="370" width="160" height="40" as="geometry" />
        </mxCell>
        <mxCell id="86NrVQ4LitImo1cRGKoc-10" style="edgeStyle=orthogonalEdgeStyle;rounded=0;orthogonalLoop=1;jettySize=auto;html=1;" edge="1" parent="86NrVQ4LitImo1cRGKoc-31" source="86NrVQ4LitImo1cRGKoc-3" target="86NrVQ4LitImo1cRGKoc-9">
          <mxGeometry relative="1" as="geometry" />
        </mxCell>
        <mxCell id="86NrVQ4LitImo1cRGKoc-21" value="结束" style="rounded=0;whiteSpace=wrap;html=1;fillColor=#D4E1F5;" vertex="1" parent="86NrVQ4LitImo1cRGKoc-31">
          <mxGeometry x="45" y="530" width="160" height="40" as="geometry" />
        </mxCell>
        <mxCell id="86NrVQ4LitImo1cRGKoc-22" style="edgeStyle=orthogonalEdgeStyle;rounded=0;orthogonalLoop=1;jettySize=auto;html=1;" edge="1" parent="86NrVQ4LitImo1cRGKoc-31" source="86NrVQ4LitImo1cRGKoc-4" target="86NrVQ4LitImo1cRGKoc-21">
          <mxGeometry relative="1" as="geometry" />
        </mxCell>
        <mxCell id="86NrVQ4LitImo1cRGKoc-41" value="将主线程的traceId塞入子线程中" style="shape=note;size=20;whiteSpace=wrap;html=1;fillColor=#F5F5F5;" vertex="1" parent="86NrVQ4LitImo1cRGKoc-31">
          <mxGeometry x="220" y="283.13" width="210" height="46.87" as="geometry" />
        </mxCell>
        <mxCell id="86NrVQ4LitImo1cRGKoc-44" value="清空线程上下文数据" style="shape=note;size=20;whiteSpace=wrap;html=1;fillColor=#F5F5F5;" vertex="1" parent="86NrVQ4LitImo1cRGKoc-31">
          <mxGeometry x="220" y="446.55999999999995" width="210" height="46.87" as="geometry" />
        </mxCell>
        <mxCell id="86NrVQ4LitImo1cRGKoc-39" style="edgeStyle=orthogonalEdgeStyle;rounded=0;orthogonalLoop=1;jettySize=auto;html=1;entryX=0.5;entryY=0;entryDx=0;entryDy=0;" edge="1" parent="86NrVQ4LitImo1cRGKoc-29" source="86NrVQ4LitImo1cRGKoc-1" target="86NrVQ4LitImo1cRGKoc-3">
          <mxGeometry relative="1" as="geometry" />
        </mxCell>
      </root>
    </mxGraphModel>
  </diagram>
</mxfile>
